<svg xmlns="http://www.w3.org/2000/svg" viewBox="0 0 221 64" role="img" aria-label="Pilot SSH">
  <title>Pilot SSH</title>
  <path d="M14 10 40 31 14 52H113.83" fill="none" stroke="#14b8a6" stroke-width="10" stroke-linejoin="round" stroke-linecap="round"/>
  <path fill="#ffffff" d="M65.87 41V17H75.69Q78.4 17 80.37 18.05Q82.33 19.09 83.39 20.96Q84.44 22.83 84.44 25.3Q84.44 27.78 83.36 29.61Q82.28 31.45 80.28 32.48Q78.29 33.51 75.53 33.51H69.44V29.02H74.5Q75.84 29.02 76.74 28.55Q77.64 28.08 78.09 27.24Q78.54 26.41 78.54 25.3Q78.54 24.17 78.09 23.34Q77.64 22.51 76.73 22.06Q75.82 21.61 74.49 21.61H71.55V41Z M93.72 17V41H88.03V17Z M98.11 41V17H103.8V36.36H113.83V41Z M127.38 41.32Q124.14 41.32 121.56 39.89Q118.97 38.46 117.46 35.7Q115.94 32.95 115.94 29.02Q115.94 25.05 117.46 22.3Q118.97 19.54 121.56 18.11Q124.14 16.68 127.38 16.68Q130.6 16.68 133.19 18.11Q135.77 19.54 137.28 22.3Q138.78 25.05 138.78 29.02Q138.78 32.96 137.28 35.72Q135.77 38.47 133.19 39.9Q130.6 41.32 127.38 41.32ZM127.38 36.33Q129.12 36.33 130.38 35.49Q131.63 34.65 132.31 33.02Q132.99 31.38 132.99 29.02Q132.99 26.63 132.31 24.99Q131.63 23.35 130.38 22.51Q129.12 21.67 127.38 21.67Q125.62 21.67 124.37 22.52Q123.11 23.36 122.44 25Q121.76 26.63 121.76 29.02Q121.76 31.38 122.44 33.01Q123.11 34.64 124.37 35.48Q125.62 36.33 127.38 36.33Z M140.77 21.64V17H160.96V21.64H153.7V41H148.03V21.64Z"/>
  <rect x="170.96" y="17" width="44.49" height="24" rx="4" fill="#14b8a6"/>
  <path fill="#0b0f14" transform="translate(99.26 15.86) scale(0.4583)" d="M181.69 41.32Q178.7 41.32 176.47 40.42Q174.25 39.52 173.01 37.68Q171.77 35.85 171.72 33.08H177.18Q177.26 34.23 177.82 35.02Q178.37 35.81 179.35 36.21Q180.32 36.6 181.63 36.6Q182.8 36.6 183.66 36.28Q184.51 35.96 184.97 35.38Q185.43 34.8 185.43 34.03Q185.43 33.33 185 32.85Q184.58 32.37 183.72 32Q182.87 31.63 181.55 31.34L179 30.74Q175.89 30.03 174.12 28.42Q172.35 26.81 172.35 24.1Q172.35 21.88 173.56 20.21Q174.77 18.53 176.87 17.6Q178.97 16.68 181.69 16.68Q184.48 16.68 186.52 17.62Q188.57 18.56 189.7 20.25Q190.83 21.93 190.86 24.15H185.4Q185.28 22.85 184.33 22.12Q183.38 21.4 181.68 21.4Q180.55 21.4 179.78 21.7Q179 21.99 178.62 22.52Q178.23 23.04 178.23 23.72Q178.23 24.46 178.66 24.97Q179.1 25.47 179.9 25.81Q180.71 26.15 181.77 26.39L183.85 26.87Q185.59 27.24 186.95 27.88Q188.31 28.52 189.26 29.4Q190.2 30.29 190.69 31.45Q191.18 32.61 191.18 34.04Q191.18 36.31 190.04 37.95Q188.91 39.58 186.79 40.45Q184.67 41.32 181.69 41.32Z M204.13 41.32Q201.13 41.32 198.91 40.42Q196.69 39.52 195.45 37.68Q194.21 35.85 194.16 33.08H199.62Q199.7 34.23 200.26 35.02Q200.81 35.81 201.79 36.21Q202.76 36.6 204.07 36.6Q205.24 36.6 206.09 36.28Q206.95 35.96 207.41 35.38Q207.87 34.8 207.87 34.03Q207.87 33.33 207.44 32.85Q207.01 32.37 206.16 32Q205.31 31.63 203.98 31.34L201.44 30.74Q198.33 30.03 196.56 28.42Q194.79 26.81 194.79 24.1Q194.79 21.88 196 20.21Q197.2 18.53 199.31 17.6Q201.41 16.68 204.13 16.68Q206.92 16.68 208.96 17.62Q211.01 18.56 212.14 20.25Q213.26 21.93 213.29 24.15H207.83Q207.72 22.85 206.77 22.12Q205.82 21.4 204.11 21.4Q202.99 21.4 202.21 21.7Q201.44 21.99 201.05 22.52Q200.67 23.04 200.67 23.72Q200.67 24.46 201.1 24.97Q201.54 25.47 202.34 25.81Q203.15 26.15 204.21 26.39L206.29 26.87Q208.03 27.24 209.39 27.88Q210.75 28.52 211.69 29.4Q212.63 30.29 213.13 31.45Q213.62 32.61 213.62 34.04Q213.62 36.31 212.48 37.95Q211.35 39.58 209.23 40.45Q207.11 41.32 204.13 41.32Z M217.3 41V17H222.99V26.42H232.57V17H238.24V41H232.57V31.06H222.99V41Z"/>
</svg>
